<svg xmlns="http://www.w3.org/2000/svg" xmlns:xlink="http://www.w3.org/1999/xlink" width="500" zoomAndPan="magnify" viewBox="0 0 375 374.999991" height="500" preserveAspectRatio="xMidYMid meet" version="1.0"><defs><g/><clipPath id="b4272c8051"><path d="M 170 51.261719 L 324 51.261719 L 324 205.761719 L 170 205.761719 Z M 170 51.261719 " clip-rule="nonzero"/></clipPath><clipPath id="03799e7ae2"><rect x="0" width="192" y="0" height="85"/></clipPath><clipPath id="d508f43509"><rect x="0" width="181" y="0" height="88"/></clipPath><clipPath id="347bae2909"><rect x="0" width="220" y="0" height="29"/></clipPath></defs><g clip-path="url(#b4272c8051)"><path fill="#333333" d="M 322.003906 197.683594 C 318.140625 194.199219 311.457031 194.664062 306.703125 193.492188 C 302.417969 192.441406 298.589844 191.304688 294.085938 190.59375 C 290.984375 190.152344 287.914062 189.546875 284.875 188.777344 C 278.691406 187.101562 277.007812 183.683594 270.550781 183.625 C 261.527344 183.4375 252.554688 182.671875 243.628906 181.335938 C 233.316406 179.90625 227.855469 175.902344 224.332031 167.835938 C 225.449219 163.101562 224.542969 158.039062 223.898438 152.28125 C 222.222656 137.136719 217.648438 124.429688 219.402344 102.914062 C 219.761719 98.460938 230.601562 98.28125 234.179688 98.28125 C 242.824219 98.28125 251.722656 98.28125 254.648438 90.367188 C 255.878906 87.539062 257.296875 84.8125 258.90625 82.179688 C 259.453125 81.511719 259.933594 80.796875 260.34375 80.039062 C 261.160156 77.664062 259.332031 76.160156 257.34375 75.308594 C 254.730469 74.207031 250.226562 72.949219 247.652344 71.726562 C 243.152344 69.578125 236.972656 67.941406 235.117188 63.066406 C 234.339844 61.019531 231.472656 56.535156 222.734375 53.96875 C 219.351562 52.808594 215.878906 52.0625 212.320312 51.726562 C 206.136719 51.25 198.90625 53.25 194.410156 57.746094 C 189.675781 62.480469 187.222656 68.785156 186.449219 75.382812 C 186.105469 78.34375 185.632812 82.40625 187.527344 84.660156 C 190.1875 87.832031 194.464844 87.898438 198.613281 87.699219 C 204.007812 87.441406 204.492188 83.078125 204.605469 76.460938 C 204.652344 73.414062 204.707031 70.535156 205.703125 68.445312 C 205.839844 68.214844 206.03125 68.0625 206.285156 67.988281 C 206.539062 67.910156 206.785156 67.929688 207.023438 68.042969 C 207.261719 68.15625 207.429688 68.339844 207.53125 68.582031 C 207.628906 68.828125 207.632812 69.074219 207.539062 69.324219 C 206.734375 71.007812 206.6875 73.679688 206.640625 76.5 C 206.535156 82.226562 206.414062 89.363281 198.714844 89.753906 C 194.152344 89.972656 189.144531 89.753906 185.964844 85.964844 C 184.707031 84.28125 184.09375 82.390625 184.128906 80.285156 C 182.367188 85.199219 180.550781 90.113281 180 91.324219 L 179.78125 91.796875 C 180.578125 93.691406 181.269531 96.636719 181.722656 97.394531 C 182.441406 98.433594 183.246094 99.402344 184.148438 100.289062 C 184.792969 100.988281 185.148438 101.8125 185.207031 102.761719 C 185.226562 103.164062 185.152344 103.546875 184.984375 103.914062 C 184.816406 104.28125 184.574219 104.59375 184.261719 104.84375 C 183.824219 105.183594 184.214844 106.046875 183.777344 106.820312 C 183.421875 107.425781 182.949219 107.925781 182.367188 108.316406 C 181.980469 108.609375 182.605469 109.265625 181.25 110.835938 C 179.894531 112.40625 173.867188 112.664062 172.257812 114.339844 C 171.1875 115.445312 170.96875 117.632812 170.960938 119.628906 C 174.386719 127.015625 177.160156 134.9375 177.273438 143.117188 C 178.761719 143.441406 180.199219 143.921875 181.582031 144.554688 C 182.96875 145.1875 184.269531 145.964844 185.484375 146.878906 C 186.703125 147.792969 187.808594 148.828125 188.800781 149.980469 C 189.796875 151.136719 190.65625 152.382812 191.378906 153.722656 C 192.476562 155.773438 193.40625 157.992188 195.003906 159.730469 C 195.945312 160.519531 196.679688 161.46875 197.210938 162.574219 C 197.949219 164.824219 196.066406 166.632812 194.976562 168.386719 C 193.886719 170.136719 193.082031 172.550781 190.679688 172.984375 C 188.160156 173.449219 183.523438 172.578125 181.503906 174.558594 C 180.558594 175.503906 181.316406 176.449219 181.867188 177.445312 C 183.464844 180.445312 184.269531 183.816406 182.8125 186.910156 C 181.164062 190.414062 181.042969 192.722656 180.320312 194.296875 C 179.578125 196.039062 178.445312 197.472656 176.921875 198.601562 L 176.480469 198.925781 C 178.285156 198.621094 180.109375 198.445312 181.941406 198.40625 C 185.347656 198.40625 188.777344 199.425781 192.15625 198.847656 C 196.445312 198.128906 200.722656 195.003906 204.660156 191.75 C 205.53125 192.34375 206.394531 192.953125 207.292969 193.519531 C 212.074219 196.546875 216.039062 199.652344 221.824219 199.976562 C 226.648438 200.128906 231.460938 199.953125 236.261719 199.445312 C 241.773438 199.019531 247.082031 198.707031 252.421875 198.707031 C 256.535156 198.691406 260.636719 198.898438 264.730469 199.324219 C 269.046875 199.6875 273.375 199.820312 277.707031 199.71875 C 281.105469 199.6875 284.484375 199.914062 287.847656 200.402344 C 291.085938 200.875 293.421875 201.347656 296.082031 203.242188 C 299.871094 205.875 307.09375 205.875 307.320312 205.875 C 312.0625 205.835938 329.101562 204.101562 322.003906 197.683594 Z M 322.003906 197.683594 " fill-opacity="1" fill-rule="nonzero"/></g><path fill="#ff8200" d="M 124.117188 160.765625 C 127.535156 159.109375 131.746094 158.652344 135.78125 158.652344 C 140.324219 158.652344 144.71875 159.429688 148.589844 161.851562 C 151.5625 163.746094 152.375 160.433594 154.5625 159.210938 C 156.296875 158.265625 157.28125 158.757812 158.074219 156.675781 C 158.777344 154.847656 159.238281 152.945312 159.789062 151.070312 C 160.734375 147.746094 158.585938 144.074219 156.65625 141.421875 C 154.582031 138.582031 151.976562 136.226562 150.976562 132.742188 C 150.171875 130.0625 150.453125 126.378906 150.453125 122.707031 C 150.453125 119.925781 150.453125 117.160156 150.367188 114.386719 C 150.367188 112.652344 150.472656 110.710938 151.601562 110.710938 C 154.175781 110.710938 156.246094 116.394531 157.089844 118.285156 C 158.566406 121.550781 160.355469 124.648438 162.050781 127.808594 C 163.460938 130.421875 164.550781 133.433594 166.179688 135.894531 C 166.28125 134.171875 165.441406 132.609375 165.117188 130.960938 C 164.351562 126.957031 164.589844 122.375 164.738281 118.277344 C 164.738281 117.066406 164.949219 113.109375 166.632812 113.109375 C 167.035156 113.136719 167.386719 113.28125 167.695312 113.542969 C 168.820312 114.375 169.351562 116.214844 169.945312 117.425781 C 170.296875 118.144531 170.636719 118.882812 170.976562 119.613281 C 170.976562 117.613281 171.207031 115.425781 172.277344 114.320312 C 173.886719 112.644531 179.914062 112.359375 181.269531 110.816406 C 182.621094 109.273438 181.996094 108.59375 182.386719 108.296875 C 182.984375 107.910156 183.464844 107.414062 183.835938 106.804688 C 184.269531 106.027344 183.882812 105.164062 184.316406 104.824219 C 184.632812 104.574219 184.875 104.265625 185.039062 103.898438 C 185.207031 103.53125 185.28125 103.144531 185.265625 102.742188 C 185.230469 101.78125 184.890625 100.941406 184.25 100.222656 C 183.351562 99.335938 182.542969 98.367188 181.828125 97.328125 C 181.25 96.378906 180.285156 91.855469 179.214844 90.453125 C 178.144531 89.050781 174.1875 84.699219 171.480469 83.921875 C 168.773438 83.144531 168.289062 83.15625 167.902344 82.425781 C 167.511719 81.695312 170.171875 75.703125 169.796875 74.929688 C 169.722656 74.695312 169.5625 74.589844 169.320312 74.605469 C 168.859375 74.605469 165.753906 77.265625 165.734375 77.257812 C 165.402344 77.058594 166.148438 74.417969 165.527344 74.339844 C 164.03125 73.953125 156.210938 81.914062 152.972656 84.308594 C 149.734375 86.703125 145.644531 89.421875 142.226562 97.203125 C 138.667969 105.308594 138.847656 116.136719 132.761719 117.71875 C 126.671875 119.300781 118.476562 117.605469 109.832031 122.832031 C 106.074219 125.164062 102.726562 127.980469 99.785156 131.28125 C 96.84375 134.585938 94.429688 138.238281 92.546875 142.238281 C 87.261719 153.597656 86.628906 163.753906 86.867188 176.089844 C 86.96875 180.957031 86.308594 186.902344 80.722656 188.3125 C 79.113281 188.703125 77.480469 188.890625 75.828125 188.878906 C 71.226562 188.878906 66.257812 187.507812 63.105469 184.640625 C 57.554688 179.574219 55.625 171.300781 57.765625 164.191406 C 59.449219 158.585938 63.652344 153.558594 68.273438 149.992188 C 77.503906 142.703125 87.414062 136.632812 96.21875 128.738281 C 103.792969 121.976562 113.089844 109.652344 109.945312 98.765625 C 109.65625 97.289062 108.972656 96.027344 107.890625 94.980469 C 106.460938 93.730469 103.746094 93.464844 102.675781 95.339844 C 101.605469 97.214844 102.542969 99.570312 102.417969 101.472656 C 101.652344 113.4375 87.859375 124.734375 79.027344 131.246094 C 66.605469 140.382812 53.503906 146.308594 48.882812 162.402344 C 45.550781 174.09375 50.957031 189.011719 62.289062 193.992188 C 67.496094 196.273438 73.28125 195.714844 78.769531 196.445312 C 81.851562 196.78125 84.855469 197.46875 87.773438 198.507812 C 89.773438 199.273438 92.707031 199.949219 94.125 201.613281 C 94.960938 202.558594 95.1875 203.449219 96.464844 204.046875 C 98.238281 204.703125 100.074219 205.003906 101.964844 204.945312 C 101.253906 190.554688 102.75 171.128906 124.117188 160.765625 Z M 124.117188 160.765625 " fill-opacity="1" fill-rule="nonzero"/><g transform="matrix(1, 0, 0, 1, 0, 219)"><g clip-path="url(#03799e7ae2)"><g fill="#f5a926" fill-opacity="0.4"><g transform="translate(-1.539124, 66.488509)"><g><path d="M 32.578125 -65.328125 C 36.992188 -65.328125 40.925781 -64.347656 44.375 -62.390625 C 47.832031 -60.429688 50.585938 -57.753906 52.640625 -54.359375 C 54.691406 -50.972656 55.71875 -47.132812 55.71875 -42.84375 C 55.71875 -38.539062 54.707031 -34.691406 52.6875 -31.296875 C 50.664062 -27.910156 47.910156 -25.253906 44.421875 -23.328125 C 40.941406 -21.398438 36.992188 -20.4375 32.578125 -20.4375 L 21.65625 -20.4375 L 21.65625 0 L 7.46875 0 L 7.46875 -65.328125 Z M 32.015625 -33.5 C 34.816406 -33.5 37.070312 -34.382812 38.78125 -36.15625 C 40.488281 -37.9375 41.34375 -40.164062 41.34375 -42.84375 C 41.34375 -45.570312 40.488281 -47.820312 38.78125 -49.59375 C 37.070312 -51.375 34.816406 -52.265625 32.015625 -52.265625 L 21.65625 -52.265625 L 21.65625 -33.5 Z M 32.015625 -33.5 "/></g></g></g><g fill="#f5a926" fill-opacity="0.4"><g transform="translate(51.190253, 66.488509)"><g><path d="M 47.6875 -50.484375 L 57.859375 -50.484375 L 57.859375 -0.09375 L 47.125 -0.09375 L 46.015625 -4.578125 C 43.835938 -2.703125 41.363281 -1.234375 38.59375 -0.171875 C 35.820312 0.878906 32.847656 1.40625 29.671875 1.40625 C 24.640625 1.40625 20.128906 0.238281 16.140625 -2.09375 C 12.160156 -4.425781 9.019531 -7.597656 6.71875 -11.609375 C 4.414062 -15.628906 3.265625 -20.191406 3.265625 -25.296875 C 3.265625 -30.328125 4.414062 -34.847656 6.71875 -38.859375 C 9.019531 -42.878906 12.160156 -46.039062 16.140625 -48.34375 C 20.128906 -50.644531 24.640625 -51.796875 29.671875 -51.796875 C 32.910156 -51.796875 35.929688 -51.25 38.734375 -50.15625 C 41.535156 -49.070312 44.023438 -47.566406 46.203125 -45.640625 Z M 30.796875 -11.484375 C 33.410156 -11.484375 35.757812 -12.070312 37.84375 -13.25 C 39.925781 -14.4375 41.554688 -16.070312 42.734375 -18.15625 C 43.921875 -20.238281 44.515625 -22.617188 44.515625 -25.296875 C 44.515625 -27.910156 43.921875 -30.257812 42.734375 -32.34375 C 41.554688 -34.425781 39.925781 -36.070312 37.84375 -37.28125 C 35.757812 -38.5 33.410156 -39.109375 30.796875 -39.109375 C 28.117188 -39.109375 25.753906 -38.5 23.703125 -37.28125 C 21.648438 -36.070312 20.03125 -34.425781 18.84375 -32.34375 C 17.664062 -30.257812 17.078125 -27.910156 17.078125 -25.296875 C 17.078125 -22.617188 17.664062 -20.253906 18.84375 -18.203125 C 20.03125 -16.148438 21.648438 -14.515625 23.703125 -13.296875 C 25.753906 -12.085938 28.117188 -11.484375 30.796875 -11.484375 Z M 30.796875 -11.484375 "/></g></g></g><g fill="#f5a926" fill-opacity="0.4"><g transform="translate(110.265883, 66.488509)"><g><path d="M 65.046875 -50.390625 L 78.578125 -50.390625 L 62.0625 0 L 51.140625 0 L 39.671875 -26.03125 L 28.46875 0 L 17.546875 0 L 0.84375 -50.390625 L 14.75 -50.390625 L 24.640625 -20.34375 L 37.796875 -50.03125 L 41.625 -50.03125 L 55.15625 -20.25 Z M 65.046875 -50.390625 "/></g></g></g><g fill="#ff8200" fill-opacity="1"><g transform="translate(-1.539124, 66.488509)"><g><path d="M 32.578125 -65.328125 C 36.992188 -65.328125 40.925781 -64.347656 44.375 -62.390625 C 47.832031 -60.429688 50.585938 -57.753906 52.640625 -54.359375 C 54.691406 -50.972656 55.71875 -47.132812 55.71875 -42.84375 C 55.71875 -38.539062 54.707031 -34.691406 52.6875 -31.296875 C 50.664062 -27.910156 47.910156 -25.253906 44.421875 -23.328125 C 40.941406 -21.398438 36.992188 -20.4375 32.578125 -20.4375 L 21.65625 -20.4375 L 21.65625 0 L 7.46875 0 L 7.46875 -65.328125 Z M 32.015625 -33.5 C 34.816406 -33.5 37.070312 -34.382812 38.78125 -36.15625 C 40.488281 -37.9375 41.34375 -40.164062 41.34375 -42.84375 C 41.34375 -45.570312 40.488281 -47.820312 38.78125 -49.59375 C 37.070312 -51.375 34.816406 -52.265625 32.015625 -52.265625 L 21.65625 -52.265625 L 21.65625 -33.5 Z M 32.015625 -33.5 "/></g></g></g><g fill="#ff8200" fill-opacity="1"><g transform="translate(51.190253, 66.488509)"><g><path d="M 47.6875 -50.484375 L 57.859375 -50.484375 L 57.859375 -0.09375 L 47.125 -0.09375 L 46.015625 -4.578125 C 43.835938 -2.703125 41.363281 -1.234375 38.59375 -0.171875 C 35.820312 0.878906 32.847656 1.40625 29.671875 1.40625 C 24.640625 1.40625 20.128906 0.238281 16.140625 -2.09375 C 12.160156 -4.425781 9.019531 -7.597656 6.71875 -11.609375 C 4.414062 -15.628906 3.265625 -20.191406 3.265625 -25.296875 C 3.265625 -30.328125 4.414062 -34.847656 6.71875 -38.859375 C 9.019531 -42.878906 12.160156 -46.039062 16.140625 -48.34375 C 20.128906 -50.644531 24.640625 -51.796875 29.671875 -51.796875 C 32.910156 -51.796875 35.929688 -51.25 38.734375 -50.15625 C 41.535156 -49.070312 44.023438 -47.566406 46.203125 -45.640625 Z M 30.796875 -11.484375 C 33.410156 -11.484375 35.757812 -12.070312 37.84375 -13.25 C 39.925781 -14.4375 41.554688 -16.070312 42.734375 -18.15625 C 43.921875 -20.238281 44.515625 -22.617188 44.515625 -25.296875 C 44.515625 -27.910156 43.921875 -30.257812 42.734375 -32.34375 C 41.554688 -34.425781 39.925781 -36.070312 37.84375 -37.28125 C 35.757812 -38.5 33.410156 -39.109375 30.796875 -39.109375 C 28.117188 -39.109375 25.753906 -38.5 23.703125 -37.28125 C 21.648438 -36.070312 20.03125 -34.425781 18.84375 -32.34375 C 17.664062 -30.257812 17.078125 -27.910156 17.078125 -25.296875 C 17.078125 -22.617188 17.664062 -20.253906 18.84375 -18.203125 C 20.03125 -16.148438 21.648438 -14.515625 23.703125 -13.296875 C 25.753906 -12.085938 28.117188 -11.484375 30.796875 -11.484375 Z M 30.796875 -11.484375 "/></g></g></g><g fill="#ff8200" fill-opacity="1"><g transform="translate(110.265883, 66.488509)"><g><path d="M 65.046875 -50.390625 L 78.578125 -50.390625 L 62.0625 0 L 51.140625 0 L 39.671875 -26.03125 L 28.46875 0 L 17.546875 0 L 0.84375 -50.390625 L 14.75 -50.390625 L 24.640625 -20.34375 L 37.796875 -50.03125 L 41.625 -50.03125 L 55.15625 -20.25 Z M 65.046875 -50.390625 "/></g></g></g></g></g><g transform="matrix(1, 0, 0, 1, 189, 216)"><g clip-path="url(#d508f43509)"><g fill="#242424" fill-opacity="1"><g transform="translate(0.81131, 69.451933)"><g><path d="M 32.578125 -65.328125 C 36.992188 -65.328125 40.925781 -64.347656 44.375 -62.390625 C 47.832031 -60.429688 50.585938 -57.753906 52.640625 -54.359375 C 54.691406 -50.972656 55.71875 -47.132812 55.71875 -42.84375 C 55.71875 -38.539062 54.707031 -34.691406 52.6875 -31.296875 C 50.664062 -27.910156 47.910156 -25.253906 44.421875 -23.328125 C 40.941406 -21.398438 36.992188 -20.4375 32.578125 -20.4375 L 21.65625 -20.4375 L 21.65625 0 L 7.46875 0 L 7.46875 -65.328125 Z M 32.015625 -33.5 C 34.816406 -33.5 37.070312 -34.382812 38.78125 -36.15625 C 40.488281 -37.9375 41.34375 -40.164062 41.34375 -42.84375 C 41.34375 -45.570312 40.488281 -47.820312 38.78125 -49.59375 C 37.070312 -51.375 34.816406 -52.265625 32.015625 -52.265625 L 21.65625 -52.265625 L 21.65625 -33.5 Z M 32.015625 -33.5 "/></g></g></g><g fill="#242424" fill-opacity="1"><g transform="translate(53.540405, 69.451933)"><g><path d="M 47.6875 -50.484375 L 57.859375 -50.484375 L 57.859375 -0.09375 L 47.125 -0.09375 L 46.015625 -4.578125 C 43.835938 -2.703125 41.363281 -1.234375 38.59375 -0.171875 C 35.820312 0.878906 32.847656 1.40625 29.671875 1.40625 C 24.640625 1.40625 20.128906 0.238281 16.140625 -2.09375 C 12.160156 -4.425781 9.019531 -7.597656 6.71875 -11.609375 C 4.414062 -15.628906 3.265625 -20.191406 3.265625 -25.296875 C 3.265625 -30.328125 4.414062 -34.847656 6.71875 -38.859375 C 9.019531 -42.878906 12.160156 -46.039062 16.140625 -48.34375 C 20.128906 -50.644531 24.640625 -51.796875 29.671875 -51.796875 C 32.910156 -51.796875 35.929688 -51.25 38.734375 -50.15625 C 41.535156 -49.070312 44.023438 -47.566406 46.203125 -45.640625 Z M 30.796875 -11.484375 C 33.410156 -11.484375 35.757812 -12.070312 37.84375 -13.25 C 39.925781 -14.4375 41.554688 -16.070312 42.734375 -18.15625 C 43.921875 -20.238281 44.515625 -22.617188 44.515625 -25.296875 C 44.515625 -27.910156 43.921875 -30.257812 42.734375 -32.34375 C 41.554688 -34.425781 39.925781 -36.070312 37.84375 -37.28125 C 35.757812 -38.5 33.410156 -39.109375 30.796875 -39.109375 C 28.117188 -39.109375 25.753906 -38.5 23.703125 -37.28125 C 21.648438 -36.070312 20.03125 -34.425781 18.84375 -32.34375 C 17.664062 -30.257812 17.078125 -27.910156 17.078125 -25.296875 C 17.078125 -22.617188 17.664062 -20.253906 18.84375 -18.203125 C 20.03125 -16.148438 21.648438 -14.515625 23.703125 -13.296875 C 25.753906 -12.085938 28.117188 -11.484375 30.796875 -11.484375 Z M 30.796875 -11.484375 "/></g></g></g><g fill="#242424" fill-opacity="1"><g transform="translate(112.615734, 69.451933)"><g><path d="M 6.53125 0 L 6.53125 -68.59375 L 20.15625 -68.59375 L 20.15625 0 Z M 6.53125 0 "/></g></g></g><g fill="#242424" fill-opacity="1"><g transform="translate(133.987028, 69.451933)"><g><path d="M 24.453125 1.40625 C 20.222656 1.40625 16.519531 0.660156 13.34375 -0.828125 C 10.175781 -2.328125 7.703125 -4.429688 5.921875 -7.140625 C 4.148438 -9.847656 3.265625 -13.003906 3.265625 -16.609375 L 16.515625 -16.609375 C 16.578125 -14.367188 17.382812 -12.6875 18.9375 -11.5625 C 20.5 -10.445312 22.492188 -9.890625 24.921875 -9.890625 C 26.847656 -9.890625 28.523438 -10.304688 29.953125 -11.140625 C 31.390625 -11.984375 32.109375 -13.25 32.109375 -14.9375 C 32.109375 -16.675781 31.15625 -17.898438 29.25 -18.609375 C 27.351562 -19.328125 25.070312 -19.90625 22.40625 -20.34375 C 20.40625 -20.65625 18.332031 -21.085938 16.1875 -21.640625 C 14.039062 -22.203125 12.066406 -23.015625 10.265625 -24.078125 C 8.460938 -25.140625 6.984375 -26.601562 5.828125 -28.46875 C 4.679688 -30.332031 4.109375 -32.757812 4.109375 -35.75 C 4.109375 -38.914062 4.960938 -41.710938 6.671875 -44.140625 C 8.378906 -46.566406 10.742188 -48.445312 13.765625 -49.78125 C 16.785156 -51.125 20.347656 -51.796875 24.453125 -51.796875 C 28.492188 -51.796875 32.023438 -51.09375 35.046875 -49.6875 C 38.066406 -48.289062 40.414062 -46.332031 42.09375 -43.8125 C 43.769531 -41.289062 44.609375 -38.351562 44.609375 -35 L 31.640625 -35 C 31.640625 -36.988281 30.96875 -38.476562 29.625 -39.46875 C 28.289062 -40.46875 26.441406 -40.96875 24.078125 -40.96875 C 21.960938 -40.96875 20.3125 -40.515625 19.125 -39.609375 C 17.945312 -38.710938 17.359375 -37.550781 17.359375 -36.125 C 17.359375 -34.4375 18.289062 -33.28125 20.15625 -32.65625 C 22.019531 -32.039062 24.257812 -31.515625 26.875 -31.078125 C 28.925781 -30.703125 31.039062 -30.25 33.21875 -29.71875 C 35.394531 -29.195312 37.414062 -28.40625 39.28125 -27.34375 C 41.15625 -26.289062 42.664062 -24.828125 43.8125 -22.953125 C 44.96875 -21.085938 45.546875 -18.628906 45.546875 -15.578125 C 45.546875 -12.160156 44.671875 -9.175781 42.921875 -6.625 C 41.179688 -4.070312 38.722656 -2.09375 35.546875 -0.6875 C 32.378906 0.707031 28.679688 1.40625 24.453125 1.40625 Z M 24.453125 1.40625 "/></g></g></g></g></g><g transform="matrix(1, 0, 0, 1, 86, 294)"><g clip-path="url(#347bae2909)"><g fill="#272727" fill-opacity="1"><g transform="translate(1.270161, 21.524318)"><g><path d="M 4.3125 -6.8125 L 4.3125 0 L 2.015625 0 L 2.015625 -17.390625 L 8.4375 -17.390625 C 10.34375 -17.390625 11.832031 -16.90625 12.90625 -15.9375 C 13.988281 -14.96875 14.53125 -13.679688 14.53125 -12.078125 C 14.53125 -10.390625 14 -9.085938 12.9375 -8.171875 C 11.882812 -7.265625 10.375 -6.8125 8.40625 -6.8125 Z M 4.3125 -8.6875 L 8.4375 -8.6875 C 9.664062 -8.6875 10.601562 -8.972656 11.25 -9.546875 C 11.90625 -10.128906 12.234375 -10.96875 12.234375 -12.0625 C 12.234375 -13.09375 11.90625 -13.914062 11.25 -14.53125 C 10.601562 -15.15625 9.707031 -15.484375 8.5625 -15.515625 L 4.3125 -15.515625 Z M 4.3125 -8.6875 "/></g></g></g><g fill="#272727" fill-opacity="1"><g transform="translate(29.678166, 21.524318)"><g><path d="M 11.859375 -8.046875 L 4.3125 -8.046875 L 4.3125 -1.875 L 13.078125 -1.875 L 13.078125 0 L 2.015625 0 L 2.015625 -17.390625 L 12.953125 -17.390625 L 12.953125 -15.515625 L 4.3125 -15.515625 L 4.3125 -9.921875 L 11.859375 -9.921875 Z M 11.859375 -8.046875 "/></g></g></g><g fill="#272727" fill-opacity="1"><g transform="translate(56.557215, 21.524318)"><g><path d="M 14.03125 -15.515625 L 8.453125 -15.515625 L 8.453125 0 L 6.171875 0 L 6.171875 -15.515625 L 0.578125 -15.515625 L 0.578125 -17.390625 L 14.03125 -17.390625 Z M 14.03125 -15.515625 "/></g></g></g><g fill="#272727" fill-opacity="1"><g transform="translate(84.129071, 21.524318)"><g/></g></g><g fill="#272727" fill-opacity="1"><g transform="translate(103.160291, 21.524318)"><g><path d="M 7.140625 -7.75 C 5.171875 -8.320312 3.738281 -9.019531 2.84375 -9.84375 C 1.945312 -10.664062 1.5 -11.679688 1.5 -12.890625 C 1.5 -14.265625 2.046875 -15.398438 3.140625 -16.296875 C 4.242188 -17.191406 5.671875 -17.640625 7.421875 -17.640625 C 8.617188 -17.640625 9.679688 -17.40625 10.609375 -16.9375 C 11.546875 -16.476562 12.269531 -15.84375 12.78125 -15.03125 C 13.300781 -14.21875 13.5625 -13.328125 13.5625 -12.359375 L 11.25 -12.359375 C 11.25 -13.410156 10.914062 -14.238281 10.25 -14.84375 C 9.582031 -15.445312 8.640625 -15.75 7.421875 -15.75 C 6.285156 -15.75 5.398438 -15.5 4.765625 -15 C 4.140625 -14.5 3.828125 -13.804688 3.828125 -12.921875 C 3.828125 -12.210938 4.125 -11.613281 4.71875 -11.125 C 5.320312 -10.632812 6.347656 -10.1875 7.796875 -9.78125 C 9.242188 -9.375 10.375 -8.925781 11.1875 -8.4375 C 12 -7.945312 12.601562 -7.375 13 -6.71875 C 13.394531 -6.070312 13.59375 -5.304688 13.59375 -4.421875 C 13.59375 -3.015625 13.039062 -1.882812 11.9375 -1.03125 C 10.84375 -0.1875 9.375 0.234375 7.53125 0.234375 C 6.34375 0.234375 5.226562 0.00390625 4.1875 -0.453125 C 3.15625 -0.910156 2.359375 -1.535156 1.796875 -2.328125 C 1.234375 -3.128906 0.953125 -4.035156 0.953125 -5.046875 L 3.265625 -5.046875 C 3.265625 -3.992188 3.648438 -3.160156 4.421875 -2.546875 C 5.203125 -1.941406 6.238281 -1.640625 7.53125 -1.640625 C 8.75 -1.640625 9.679688 -1.882812 10.328125 -2.375 C 10.972656 -2.875 11.296875 -3.546875 11.296875 -4.390625 C 11.296875 -5.242188 10.992188 -5.90625 10.390625 -6.375 C 9.796875 -6.84375 8.710938 -7.300781 7.140625 -7.75 Z M 7.140625 -7.75 "/></g></g></g><g fill="#272727" fill-opacity="1"><g transform="translate(130.648547, 21.524318)"><g><path d="M 15.390625 0 L 13.078125 0 L 13.078125 -8.046875 L 4.3125 -8.046875 L 4.3125 0 L 2.015625 0 L 2.015625 -17.390625 L 4.3125 -17.390625 L 4.3125 -9.921875 L 13.078125 -9.921875 L 13.078125 -17.390625 L 15.390625 -17.390625 Z M 15.390625 0 "/></g></g></g><g fill="#272727" fill-opacity="1"><g transform="translate(161.063306, 21.524318)"><g><path d="M 15.40625 -8.140625 C 15.40625 -6.429688 15.117188 -4.941406 14.546875 -3.671875 C 13.972656 -2.398438 13.160156 -1.429688 12.109375 -0.765625 C 11.054688 -0.0976562 9.828125 0.234375 8.421875 0.234375 C 7.054688 0.234375 5.84375 -0.0976562 4.78125 -0.765625 C 3.71875 -1.441406 2.894531 -2.398438 2.3125 -3.640625 C 1.726562 -4.890625 1.425781 -6.335938 1.40625 -7.984375 L 1.40625 -9.234375 C 1.40625 -10.910156 1.695312 -12.390625 2.28125 -13.671875 C 2.863281 -14.953125 3.6875 -15.929688 4.75 -16.609375 C 5.8125 -17.296875 7.03125 -17.640625 8.40625 -17.640625 C 9.789062 -17.640625 11.015625 -17.300781 12.078125 -16.625 C 13.148438 -15.945312 13.972656 -14.96875 14.546875 -13.6875 C 15.117188 -12.414062 15.40625 -10.929688 15.40625 -9.234375 Z M 13.125 -9.265625 C 13.125 -11.328125 12.707031 -12.90625 11.875 -14 C 11.050781 -15.101562 9.894531 -15.65625 8.40625 -15.65625 C 6.945312 -15.65625 5.800781 -15.101562 4.96875 -14 C 4.144531 -12.90625 3.71875 -11.378906 3.6875 -9.421875 L 3.6875 -8.140625 C 3.6875 -6.140625 4.109375 -4.566406 4.953125 -3.421875 C 5.796875 -2.273438 6.953125 -1.703125 8.421875 -1.703125 C 9.898438 -1.703125 11.046875 -2.242188 11.859375 -3.328125 C 12.671875 -4.410156 13.09375 -5.957031 13.125 -7.96875 Z M 13.125 -9.265625 "/></g></g></g><g fill="#272727" fill-opacity="1"><g transform="translate(190.856927, 21.524318)"><g><path d="M 4.3125 -6.8125 L 4.3125 0 L 2.015625 0 L 2.015625 -17.390625 L 8.4375 -17.390625 C 10.34375 -17.390625 11.832031 -16.90625 12.90625 -15.9375 C 13.988281 -14.96875 14.53125 -13.679688 14.53125 -12.078125 C 14.53125 -10.390625 14 -9.085938 12.9375 -8.171875 C 11.882812 -7.265625 10.375 -6.8125 8.40625 -6.8125 Z M 4.3125 -8.6875 L 8.4375 -8.6875 C 9.664062 -8.6875 10.601562 -8.972656 11.25 -9.546875 C 11.90625 -10.128906 12.234375 -10.96875 12.234375 -12.0625 C 12.234375 -13.09375 11.90625 -13.914062 11.25 -14.53125 C 10.601562 -15.15625 9.707031 -15.484375 8.5625 -15.515625 L 4.3125 -15.515625 Z M 4.3125 -8.6875 "/></g></g></g></g></g></svg>