<svg xmlns="http://www.w3.org/2000/svg" xmlns:xlink="http://www.w3.org/1999/xlink" width="500" zoomAndPan="magnify" viewBox="0 0 375 374.999991" height="500" preserveAspectRatio="xMidYMid meet" version="1.0"><defs><g/><clipPath id="ae6d0921fe"><path d="M 78 186 L 114 186 L 114 235.621094 L 78 235.621094 Z M 78 186 " clip-rule="nonzero"/></clipPath></defs><path fill="#f39200" d="M 130.660156 154.402344 C 129.039062 151.859375 126.40625 153.042969 117.460938 150.457031 C 115.042969 149.757812 112.238281 149.183594 110.46875 147.265625 C 108.925781 145.589844 108.175781 143.183594 107.109375 141.289062 C 103.734375 135.28125 92.027344 133.222656 92.027344 133.222656 C 92.027344 133.222656 90.839844 141.554688 90.839844 141.554688 C 90.382812 144.792969 88.0625 151.332031 84.699219 152.804688 C 85.832031 149.949219 87.351562 147.453125 87.640625 144.273438 C 87.644531 144.242188 88.5625 134.046875 90.578125 129.316406 C 94.8125 119.378906 78.660156 124.75 75.09375 126.746094 C 70.820312 129.136719 65.097656 134.488281 70.15625 139.363281 C 71.429688 140.589844 74.871094 143.226562 76.777344 142.726562 C 73.117188 143.6875 67.191406 142.570312 65.871094 138.527344 C 65.996094 138.90625 61.3125 143.601562 60.808594 144.261719 C 59.203125 146.375 57.757812 148.609375 56.488281 150.941406 C 55.367188 153 54.167969 155.230469 53.429688 157.453125 C 52.582031 160.007812 52.433594 162.695312 50.75 164.921875 C 49.050781 167.167969 47.386719 169.386719 45.964844 171.820312 C 40.175781 181.738281 37.5 192.125 40.359375 203.425781 C 42.25 210.886719 46.023438 217.875 51.375 223.421875 C 53.964844 226.109375 56.90625 228.355469 60.070312 230.304688 C 61.828125 231.390625 63.703125 232.175781 65.652344 232.84375 C 67.300781 233.40625 69.746094 233.636719 71.195312 234.585938 C 55.546875 224.359375 43.015625 208.425781 46.8125 188.828125 C 49.53125 174.796875 56.679688 169.007812 56.679688 169.007812 C 56.128906 169.449219 56.628906 173.90625 56.710938 174.679688 C 56.9375 176.773438 57.710938 179.785156 59.609375 180.960938 C 58.710938 177.160156 57.757812 173.402344 58.480469 169.488281 C 59.210938 165.53125 61.125 161.847656 63.382812 158.554688 C 65.9375 154.816406 69.765625 152.214844 73.195312 156.753906 C 73.699219 157.417969 76.425781 163.484375 76.578125 163.480469 C 78.445312 163.464844 80.703125 164.878906 82.53125 164.320312 C 85.566406 163.394531 88.132812 159.238281 90.757812 157.464844 C 91.878906 156.707031 93.246094 156.296875 92.296875 158.339844 C 91.183594 160.742188 88.984375 163.09375 88.128906 165.519531 C 87.539062 167.191406 88.203125 166.925781 89.859375 167.835938 C 91.113281 168.527344 92.335938 169.28125 93.414062 170.226562 C 96.90625 173.285156 96.519531 181.132812 100.972656 182.875 C 100.460938 178.527344 102.265625 173.976562 106.574219 172.394531 C 113.144531 169.984375 119.960938 173.925781 125.335938 167.867188 C 127.695312 165.203125 127.652344 162.109375 129.207031 159.136719 C 129.871094 157.863281 131.636719 155.933594 130.660156 154.402344 Z M 101.367188 151.550781 C 100.007812 151.550781 98.910156 150.058594 98.910156 148.21875 C 98.910156 146.378906 100.007812 144.886719 101.367188 144.886719 C 102.722656 144.886719 103.820312 146.378906 103.820312 148.21875 C 103.820312 150.058594 102.722656 151.550781 101.367188 151.550781 Z M 101.367188 151.550781 " fill-opacity="1" fill-rule="nonzero"/><path fill="#f39200" d="M 69.089844 180.496094 C 63.191406 175.125 62.65625 165.191406 67.433594 158.824219 C 69.519531 156.039062 71.863281 157.949219 72.773438 160.847656 C 73.800781 164.121094 75.675781 166.835938 77.890625 169.351562 C 77.535156 168.945312 73.582031 171.519531 73.058594 171.921875 C 71.507812 173.113281 70.316406 174.589844 69.652344 176.445312 C 69.421875 177.105469 68.335938 179.808594 69.089844 180.496094 Z M 69.089844 180.496094 " fill-opacity="1" fill-rule="nonzero"/><path fill="#f39200" d="M 83.210938 177.777344 C 83.984375 177.996094 86.535156 176.097656 87.730469 176.140625 C 91.113281 176.25 91.988281 181.035156 93.726562 183.125 C 92.519531 183.054688 91.0625 183.355469 89.882812 183.054688 C 86.675781 182.25 86.023438 178.582031 83.210938 177.777344 Z M 83.210938 177.777344 " fill-opacity="1" fill-rule="nonzero"/><path fill="#f39200" d="M 72.464844 188.230469 C 73.628906 186.820312 79.71875 186.804688 81.453125 186.746094 C 84.671875 186.632812 87.722656 187.148438 90.757812 188.191406 C 90.457031 187.234375 89.203125 186.332031 88.246094 185.816406 C 84.054688 183.554688 75.628906 184.386719 72.464844 188.230469 Z M 72.464844 188.230469 " fill-opacity="1" fill-rule="nonzero"/><path fill="#f39200" d="M 74.972656 192.464844 C 79.59375 189.148438 86.453125 187.789062 91.8125 190.015625 C 89.851562 189.722656 87.929688 190.34375 85.988281 190.53125 C 82.257812 190.890625 78.617188 192.03125 74.972656 192.464844 Z M 74.972656 192.464844 " fill-opacity="1" fill-rule="nonzero"/><path fill="#f39200" d="M 93.359375 191.746094 C 90.976562 191.125 88.304688 191.839844 86.101562 192.769531 C 84.820312 193.304688 83.601562 193.972656 82.449219 194.742188 C 81.71875 195.230469 80.339844 196.878906 79.546875 197.039062 C 81.84375 196.570312 84.101562 195.042969 86.285156 194.167969 C 88.605469 193.238281 90.953125 192.414062 93.359375 191.746094 Z M 93.359375 191.746094 " fill-opacity="1" fill-rule="nonzero"/><path fill="#f39200" d="M 111.890625 188.976562 C 111.890625 188.976562 106.890625 189.417969 104.523438 190.832031 C 104.523438 190.832031 102.769531 187.550781 111.890625 188.976562 Z M 111.890625 188.976562 " fill-opacity="1" fill-rule="nonzero"/><path fill="#f39200" d="M 104.386719 193.125 L 104.386719 191.808594 C 104.386719 191.808594 110.488281 191.546875 111.890625 193.652344 C 111.890625 193.652344 108.199219 192.335938 104.386719 193.125 Z M 104.386719 193.125 " fill-opacity="1" fill-rule="nonzero"/><path fill="#f39200" d="M 104.386719 194.394531 C 104.386719 194.394531 108.558594 195.933594 109.257812 197.6875 C 109.257812 197.6875 105.226562 195.40625 103.644531 195.667969 Z M 104.386719 194.394531 " fill-opacity="1" fill-rule="nonzero"/><g clip-path="url(#ae6d0921fe)"><path fill="#f39200" d="M 100.3125 189.726562 C 100.359375 188.996094 97.613281 188.589844 98.429688 186.941406 C 98.699219 186.394531 99.394531 186.230469 100 186.144531 C 100.890625 186.019531 101.828125 185.929688 102.667969 186.257812 C 102.839844 186.324219 103.007812 186.410156 103.136719 186.542969 C 103.277344 186.691406 103.355469 186.886719 103.40625 187.082031 C 103.773438 188.5 102.332031 189.769531 102.265625 191.222656 C 102.136719 194.121094 100.8125 195.921875 99.644531 198.496094 C 94.96875 208.796875 98.75 222.375 106.269531 230.34375 C 108.308594 232.503906 110.640625 234.316406 113.117188 235.941406 C 111.707031 235.53125 110.292969 235.761719 108.875 235.472656 C 98.558594 233.375 88.101562 227.625 82.125 218.765625 C 80.234375 215.960938 78.75 212.664062 78.527344 209.253906 C 78.347656 206.558594 79.226562 203.871094 81.257812 202.03125 C 83.613281 199.894531 86.898438 199.804688 89.90625 199.949219 C 92.984375 200.097656 95.875 199.425781 98.132812 197.152344 C 100.253906 195.015625 100.140625 192.523438 100.3125 189.726562 Z M 100.3125 189.726562 " fill-opacity="1" fill-rule="nonzero"/></g><g fill="#000000" fill-opacity="1"><g transform="translate(116.342282, 208.822004)"><g><path d="M 2.546875 -34.953125 L 15.296875 -34.953125 C 18.859375 -34.953125 21.738281 -34.035156 23.9375 -32.203125 C 26.144531 -30.367188 27.25 -27.695312 27.25 -24.1875 C 27.25 -20.6875 26.128906 -17.941406 23.890625 -15.953125 C 21.660156 -13.960938 18.796875 -12.96875 15.296875 -12.96875 L 10.515625 -12.96875 L 10.515625 0 L 2.546875 0 Z M 10.515625 -19.328125 L 12.75 -19.328125 C 14.53125 -19.328125 15.992188 -19.6875 17.140625 -20.40625 C 18.285156 -21.125 18.859375 -22.300781 18.859375 -23.9375 C 18.859375 -25.601562 18.285156 -26.796875 17.140625 -27.515625 C 15.992188 -28.242188 14.53125 -28.609375 12.75 -28.609375 L 10.515625 -28.609375 Z M 10.515625 -19.328125 "/></g></g></g><g fill="#000000" fill-opacity="1"><g transform="translate(142.437853, 208.822004)"><g><path d="M 4.015625 -2.6875 C 1.984375 -4.90625 0.96875 -7.625 0.96875 -10.84375 C 0.96875 -14.0625 1.984375 -16.785156 4.015625 -19.015625 C 6.054688 -21.253906 8.644531 -22.375 11.78125 -22.375 C 14.664062 -22.375 17.039062 -21.46875 18.90625 -19.65625 L 18.90625 -21.734375 L 26.40625 -21.734375 L 26.40625 0 L 18.984375 0 L 18.984375 -2.453125 L 18.90625 -2.453125 C 17.039062 -0.390625 14.664062 0.640625 11.78125 0.640625 C 8.644531 0.640625 6.054688 -0.46875 4.015625 -2.6875 Z M 10.390625 -14.53125 C 9.421875 -13.570312 8.9375 -12.34375 8.9375 -10.84375 C 8.9375 -9.351562 9.398438 -8.132812 10.328125 -7.1875 C 11.265625 -6.238281 12.5 -5.765625 14.03125 -5.765625 C 15.5 -5.765625 16.703125 -6.242188 17.640625 -7.203125 C 18.585938 -8.160156 19.0625 -9.375 19.0625 -10.84375 C 19.0625 -12.34375 18.570312 -13.570312 17.59375 -14.53125 C 16.625 -15.488281 15.4375 -15.96875 14.03125 -15.96875 C 12.582031 -15.96875 11.367188 -15.488281 10.390625 -14.53125 Z M 10.390625 -14.53125 "/></g></g></g><g fill="#000000" fill-opacity="1"><g transform="translate(169.253601, 208.822004)"><g><path d="M 15.890625 0 L 10.8125 0 L -0.84375 -21.734375 L 7.796875 -21.734375 L 13.09375 -10 L 18.3125 -21.734375 L 23.46875 -21.734375 L 28.6875 -10 L 33.984375 -21.734375 L 42.625 -21.734375 L 30.96875 0 L 25.890625 0 L 20.890625 -11.234375 Z M 15.890625 0 "/></g></g></g><g fill="#000000" fill-opacity="1"><g transform="translate(119.242123, 226.552264)"><g><path d="M 4.125 0.078125 C 3.445312 0.078125 2.828125 -0.078125 2.265625 -0.390625 C 1.703125 -0.710938 1.257812 -1.160156 0.9375 -1.734375 C 0.613281 -2.304688 0.453125 -2.945312 0.453125 -3.65625 C 0.453125 -4.375 0.613281 -5.015625 0.9375 -5.578125 C 1.257812 -6.148438 1.703125 -6.59375 2.265625 -6.90625 C 2.828125 -7.226562 3.445312 -7.390625 4.125 -7.390625 C 4.800781 -7.390625 5.421875 -7.226562 5.984375 -6.90625 C 6.546875 -6.59375 6.988281 -6.148438 7.3125 -5.578125 C 7.632812 -5.015625 7.796875 -4.375 7.796875 -3.65625 C 7.796875 -2.9375 7.632812 -2.289062 7.3125 -1.71875 C 6.988281 -1.15625 6.546875 -0.710938 5.984375 -0.390625 C 5.421875 -0.078125 4.800781 0.078125 4.125 0.078125 Z M 4.125 -0.75 C 4.632812 -0.75 5.09375 -0.867188 5.5 -1.109375 C 5.90625 -1.347656 6.222656 -1.6875 6.453125 -2.125 C 6.691406 -2.5625 6.8125 -3.070312 6.8125 -3.65625 C 6.8125 -4.25 6.691406 -4.757812 6.453125 -5.1875 C 6.222656 -5.625 5.90625 -5.960938 5.5 -6.203125 C 5.09375 -6.441406 4.632812 -6.5625 4.125 -6.5625 C 3.601562 -6.5625 3.140625 -6.441406 2.734375 -6.203125 C 2.328125 -5.960938 2.003906 -5.625 1.765625 -5.1875 C 1.535156 -4.757812 1.421875 -4.25 1.421875 -3.65625 C 1.421875 -3.070312 1.535156 -2.5625 1.765625 -2.125 C 2.003906 -1.6875 2.328125 -1.347656 2.734375 -1.109375 C 3.148438 -0.867188 3.613281 -0.75 4.125 -0.75 Z M 4.125 -0.75 "/></g></g></g><g fill="#000000" fill-opacity="1"><g transform="translate(128.000961, 226.552264)"><g><path d="M 4.65625 0 L 2.921875 -2.984375 L 1.765625 -2.984375 L 1.765625 0 L 0.8125 0 L 0.8125 -7.3125 L 3.171875 -7.3125 C 3.722656 -7.3125 4.1875 -7.210938 4.5625 -7.015625 C 4.945312 -6.828125 5.234375 -6.570312 5.421875 -6.25 C 5.609375 -5.9375 5.703125 -5.570312 5.703125 -5.15625 C 5.703125 -4.65625 5.554688 -4.210938 5.265625 -3.828125 C 4.972656 -3.441406 4.539062 -3.1875 3.96875 -3.0625 L 5.796875 0 Z M 1.765625 -3.75 L 3.171875 -3.75 C 3.679688 -3.75 4.066406 -3.875 4.328125 -4.125 C 4.585938 -4.382812 4.71875 -4.726562 4.71875 -5.15625 C 4.71875 -5.59375 4.585938 -5.925781 4.328125 -6.15625 C 4.078125 -6.394531 3.691406 -6.515625 3.171875 -6.515625 L 1.765625 -6.515625 Z M 1.765625 -3.75 "/></g></g></g><g fill="#000000" fill-opacity="1"><g transform="translate(134.894984, 226.552264)"><g><path d="M 6.34375 -5.1875 C 6.132812 -5.613281 5.835938 -5.941406 5.453125 -6.171875 C 5.078125 -6.410156 4.632812 -6.53125 4.125 -6.53125 C 3.613281 -6.53125 3.148438 -6.410156 2.734375 -6.171875 C 2.328125 -5.941406 2.003906 -5.609375 1.765625 -5.171875 C 1.535156 -4.734375 1.421875 -4.226562 1.421875 -3.65625 C 1.421875 -3.082031 1.535156 -2.578125 1.765625 -2.140625 C 2.003906 -1.710938 2.328125 -1.378906 2.734375 -1.140625 C 3.148438 -0.910156 3.613281 -0.796875 4.125 -0.796875 C 4.832031 -0.796875 5.414062 -1.007812 5.875 -1.4375 C 6.34375 -1.863281 6.613281 -2.441406 6.6875 -3.171875 L 3.78125 -3.171875 L 3.78125 -3.9375 L 7.703125 -3.9375 L 7.703125 -3.203125 C 7.648438 -2.609375 7.460938 -2.0625 7.140625 -1.5625 C 6.816406 -1.0625 6.390625 -0.664062 5.859375 -0.375 C 5.335938 -0.0820312 4.757812 0.0625 4.125 0.0625 C 3.445312 0.0625 2.828125 -0.09375 2.265625 -0.40625 C 1.703125 -0.726562 1.257812 -1.171875 0.9375 -1.734375 C 0.613281 -2.304688 0.453125 -2.945312 0.453125 -3.65625 C 0.453125 -4.375 0.613281 -5.015625 0.9375 -5.578125 C 1.257812 -6.148438 1.703125 -6.59375 2.265625 -6.90625 C 2.828125 -7.226562 3.445312 -7.390625 4.125 -7.390625 C 4.894531 -7.390625 5.578125 -7.195312 6.171875 -6.8125 C 6.773438 -6.425781 7.210938 -5.882812 7.484375 -5.1875 Z M 6.34375 -5.1875 "/></g></g></g><g fill="#000000" fill-opacity="1"><g transform="translate(143.570017, 226.552264)"><g><path d="M 5.125 -1.625 L 1.9375 -1.625 L 1.359375 0 L 0.34375 0 L 2.984375 -7.265625 L 4.09375 -7.265625 L 6.71875 0 L 5.71875 0 Z M 4.859375 -2.40625 L 3.53125 -6.09375 L 2.21875 -2.40625 Z M 4.859375 -2.40625 "/></g></g></g><g fill="#000000" fill-opacity="1"><g transform="translate(151.155481, 226.552264)"><g><path d="M 6.546875 0 L 5.59375 0 L 1.765625 -5.8125 L 1.765625 0 L 0.8125 0 L 0.8125 -7.3125 L 1.765625 -7.3125 L 5.59375 -1.515625 L 5.59375 -7.3125 L 6.546875 -7.3125 Z M 6.546875 0 "/></g></g></g><g fill="#000000" fill-opacity="1"><g transform="translate(159.044774, 226.552264)"><g><path d="M 1.765625 -7.3125 L 1.765625 0 L 0.8125 0 L 0.8125 -7.3125 Z M 1.765625 -7.3125 "/></g></g></g><g fill="#000000" fill-opacity="1"><g transform="translate(162.146283, 226.552264)"><g><path d="M 0.453125 -3.65625 C 0.453125 -4.375 0.613281 -5.015625 0.9375 -5.578125 C 1.257812 -6.148438 1.695312 -6.597656 2.25 -6.921875 C 2.800781 -7.242188 3.414062 -7.40625 4.09375 -7.40625 C 4.894531 -7.40625 5.59375 -7.210938 6.1875 -6.828125 C 6.78125 -6.441406 7.210938 -5.894531 7.484375 -5.1875 L 6.34375 -5.1875 C 6.132812 -5.625 5.835938 -5.960938 5.453125 -6.203125 C 5.078125 -6.441406 4.625 -6.5625 4.09375 -6.5625 C 3.582031 -6.5625 3.125 -6.441406 2.71875 -6.203125 C 2.320312 -5.960938 2.003906 -5.625 1.765625 -5.1875 C 1.535156 -4.757812 1.421875 -4.25 1.421875 -3.65625 C 1.421875 -3.070312 1.535156 -2.5625 1.765625 -2.125 C 2.003906 -1.695312 2.320312 -1.363281 2.71875 -1.125 C 3.125 -0.882812 3.582031 -0.765625 4.09375 -0.765625 C 4.625 -0.765625 5.078125 -0.878906 5.453125 -1.109375 C 5.835938 -1.347656 6.132812 -1.6875 6.34375 -2.125 L 7.484375 -2.125 C 7.210938 -1.425781 6.78125 -0.882812 6.1875 -0.5 C 5.59375 -0.125 4.894531 0.0625 4.09375 0.0625 C 3.414062 0.0625 2.800781 -0.09375 2.25 -0.40625 C 1.695312 -0.726562 1.257812 -1.171875 0.9375 -1.734375 C 0.613281 -2.304688 0.453125 -2.945312 0.453125 -3.65625 Z M 0.453125 -3.65625 "/></g></g></g><g fill="#000000" fill-opacity="1"><g transform="translate(170.758454, 226.552264)"><g/></g></g><g fill="#000000" fill-opacity="1"><g transform="translate(174.079975, 226.552264)"><g><path d="M 4.9375 -7.3125 L 4.9375 -6.53125 L 1.765625 -6.53125 L 1.765625 -4.0625 L 4.34375 -4.0625 L 4.34375 -3.296875 L 1.765625 -3.296875 L 1.765625 0 L 0.8125 0 L 0.8125 -7.3125 Z M 4.9375 -7.3125 "/></g></g></g><g fill="#000000" fill-opacity="1"><g transform="translate(179.88443, 226.552264)"><g><path d="M 4.125 0.078125 C 3.445312 0.078125 2.828125 -0.078125 2.265625 -0.390625 C 1.703125 -0.710938 1.257812 -1.160156 0.9375 -1.734375 C 0.613281 -2.304688 0.453125 -2.945312 0.453125 -3.65625 C 0.453125 -4.375 0.613281 -5.015625 0.9375 -5.578125 C 1.257812 -6.148438 1.703125 -6.59375 2.265625 -6.90625 C 2.828125 -7.226562 3.445312 -7.390625 4.125 -7.390625 C 4.800781 -7.390625 5.421875 -7.226562 5.984375 -6.90625 C 6.546875 -6.59375 6.988281 -6.148438 7.3125 -5.578125 C 7.632812 -5.015625 7.796875 -4.375 7.796875 -3.65625 C 7.796875 -2.9375 7.632812 -2.289062 7.3125 -1.71875 C 6.988281 -1.15625 6.546875 -0.710938 5.984375 -0.390625 C 5.421875 -0.078125 4.800781 0.078125 4.125 0.078125 Z M 4.125 -0.75 C 4.632812 -0.75 5.09375 -0.867188 5.5 -1.109375 C 5.90625 -1.347656 6.222656 -1.6875 6.453125 -2.125 C 6.691406 -2.5625 6.8125 -3.070312 6.8125 -3.65625 C 6.8125 -4.25 6.691406 -4.757812 6.453125 -5.1875 C 6.222656 -5.625 5.90625 -5.960938 5.5 -6.203125 C 5.09375 -6.441406 4.632812 -6.5625 4.125 -6.5625 C 3.601562 -6.5625 3.140625 -6.441406 2.734375 -6.203125 C 2.328125 -5.960938 2.003906 -5.625 1.765625 -5.1875 C 1.535156 -4.757812 1.421875 -4.25 1.421875 -3.65625 C 1.421875 -3.070312 1.535156 -2.5625 1.765625 -2.125 C 2.003906 -1.6875 2.328125 -1.347656 2.734375 -1.109375 C 3.148438 -0.867188 3.613281 -0.75 4.125 -0.75 Z M 4.125 -0.75 "/></g></g></g><g fill="#000000" fill-opacity="1"><g transform="translate(188.643268, 226.552264)"><g><path d="M 4.125 0.078125 C 3.445312 0.078125 2.828125 -0.078125 2.265625 -0.390625 C 1.703125 -0.710938 1.257812 -1.160156 0.9375 -1.734375 C 0.613281 -2.304688 0.453125 -2.945312 0.453125 -3.65625 C 0.453125 -4.375 0.613281 -5.015625 0.9375 -5.578125 C 1.257812 -6.148438 1.703125 -6.59375 2.265625 -6.90625 C 2.828125 -7.226562 3.445312 -7.390625 4.125 -7.390625 C 4.800781 -7.390625 5.421875 -7.226562 5.984375 -6.90625 C 6.546875 -6.59375 6.988281 -6.148438 7.3125 -5.578125 C 7.632812 -5.015625 7.796875 -4.375 7.796875 -3.65625 C 7.796875 -2.9375 7.632812 -2.289062 7.3125 -1.71875 C 6.988281 -1.15625 6.546875 -0.710938 5.984375 -0.390625 C 5.421875 -0.078125 4.800781 0.078125 4.125 0.078125 Z M 4.125 -0.75 C 4.632812 -0.75 5.09375 -0.867188 5.5 -1.109375 C 5.90625 -1.347656 6.222656 -1.6875 6.453125 -2.125 C 6.691406 -2.5625 6.8125 -3.070312 6.8125 -3.65625 C 6.8125 -4.25 6.691406 -4.757812 6.453125 -5.1875 C 6.222656 -5.625 5.90625 -5.960938 5.5 -6.203125 C 5.09375 -6.441406 4.632812 -6.5625 4.125 -6.5625 C 3.601562 -6.5625 3.140625 -6.441406 2.734375 -6.203125 C 2.328125 -5.960938 2.003906 -5.625 1.765625 -5.1875 C 1.535156 -4.757812 1.421875 -4.25 1.421875 -3.65625 C 1.421875 -3.070312 1.535156 -2.5625 1.765625 -2.125 C 2.003906 -1.6875 2.328125 -1.347656 2.734375 -1.109375 C 3.148438 -0.867188 3.613281 -0.75 4.125 -0.75 Z M 4.125 -0.75 "/></g></g></g><g fill="#000000" fill-opacity="1"><g transform="translate(197.402106, 226.552264)"><g><path d="M 3.078125 -7.3125 C 3.878906 -7.3125 4.570312 -7.160156 5.15625 -6.859375 C 5.738281 -6.566406 6.1875 -6.144531 6.5 -5.59375 C 6.8125 -5.039062 6.96875 -4.390625 6.96875 -3.640625 C 6.96875 -2.890625 6.8125 -2.238281 6.5 -1.6875 C 6.1875 -1.144531 5.738281 -0.726562 5.15625 -0.4375 C 4.570312 -0.144531 3.878906 0 3.078125 0 L 0.8125 0 L 0.8125 -7.3125 Z M 3.078125 -0.78125 C 4.023438 -0.78125 4.742188 -1.03125 5.234375 -1.53125 C 5.734375 -2.03125 5.984375 -2.734375 5.984375 -3.640625 C 5.984375 -4.546875 5.734375 -5.253906 5.234375 -5.765625 C 4.734375 -6.273438 4.015625 -6.53125 3.078125 -6.53125 L 1.765625 -6.53125 L 1.765625 -0.78125 Z M 3.078125 -0.78125 "/></g></g></g><g fill="#000000" fill-opacity="1"><g transform="translate(205.333296, 226.552264)"><g/></g></g><g fill="#000000" fill-opacity="1"><g transform="translate(208.654817, 226.552264)"><g><path d="M 6.421875 0 L 5.46875 -0.96875 C 5.101562 -0.59375 4.71875 -0.316406 4.3125 -0.140625 C 3.914062 0.0351562 3.460938 0.125 2.953125 0.125 C 2.441406 0.125 1.992188 0.0351562 1.609375 -0.140625 C 1.222656 -0.328125 0.921875 -0.585938 0.703125 -0.921875 C 0.492188 -1.253906 0.390625 -1.644531 0.390625 -2.09375 C 0.390625 -2.601562 0.535156 -3.050781 0.828125 -3.4375 C 1.117188 -3.832031 1.546875 -4.140625 2.109375 -4.359375 C 1.878906 -4.628906 1.71875 -4.875 1.625 -5.09375 C 1.53125 -5.320312 1.484375 -5.566406 1.484375 -5.828125 C 1.484375 -6.140625 1.5625 -6.414062 1.71875 -6.65625 C 1.875 -6.90625 2.097656 -7.097656 2.390625 -7.234375 C 2.679688 -7.378906 3.019531 -7.453125 3.40625 -7.453125 C 3.78125 -7.453125 4.109375 -7.378906 4.390625 -7.234375 C 4.671875 -7.085938 4.878906 -6.882812 5.015625 -6.625 C 5.160156 -6.363281 5.222656 -6.070312 5.203125 -5.75 L 4.25 -5.75 C 4.257812 -6.03125 4.179688 -6.253906 4.015625 -6.421875 C 3.847656 -6.585938 3.628906 -6.671875 3.359375 -6.671875 C 3.085938 -6.671875 2.863281 -6.59375 2.6875 -6.4375 C 2.519531 -6.28125 2.4375 -6.078125 2.4375 -5.828125 C 2.4375 -5.617188 2.492188 -5.414062 2.609375 -5.21875 C 2.722656 -5.019531 2.914062 -4.78125 3.1875 -4.5 L 5.375 -2.3125 L 5.5625 -2.59375 L 6.265625 -3.796875 L 7.296875 -3.796875 L 6.4375 -2.3125 C 6.320312 -2.09375 6.179688 -1.867188 6.015625 -1.640625 L 7.671875 0 Z M 2.953125 -0.6875 C 3.328125 -0.6875 3.664062 -0.757812 3.96875 -0.90625 C 4.269531 -1.050781 4.554688 -1.28125 4.828125 -1.59375 L 2.6875 -3.75 C 1.789062 -3.40625 1.34375 -2.863281 1.34375 -2.125 C 1.34375 -1.71875 1.488281 -1.375 1.78125 -1.09375 C 2.082031 -0.820312 2.472656 -0.6875 2.953125 -0.6875 Z M 2.953125 -0.6875 "/></g></g></g><g fill="#000000" fill-opacity="1"><g transform="translate(216.921262, 226.552264)"><g/></g></g><g fill="#000000" fill-opacity="1"><g transform="translate(220.242784, 226.552264)"><g><path d="M 5.125 -1.625 L 1.9375 -1.625 L 1.359375 0 L 0.34375 0 L 2.984375 -7.265625 L 4.09375 -7.265625 L 6.71875 0 L 5.71875 0 Z M 4.859375 -2.40625 L 3.53125 -6.09375 L 2.21875 -2.40625 Z M 4.859375 -2.40625 "/></g></g></g><g fill="#000000" fill-opacity="1"><g transform="translate(227.828248, 226.552264)"><g><path d="M 0.453125 -3.65625 C 0.453125 -4.375 0.613281 -5.015625 0.9375 -5.578125 C 1.257812 -6.148438 1.695312 -6.597656 2.25 -6.921875 C 2.800781 -7.242188 3.414062 -7.40625 4.09375 -7.40625 C 4.894531 -7.40625 5.59375 -7.210938 6.1875 -6.828125 C 6.78125 -6.441406 7.210938 -5.894531 7.484375 -5.1875 L 6.34375 -5.1875 C 6.132812 -5.625 5.835938 -5.960938 5.453125 -6.203125 C 5.078125 -6.441406 4.625 -6.5625 4.09375 -6.5625 C 3.582031 -6.5625 3.125 -6.441406 2.71875 -6.203125 C 2.320312 -5.960938 2.003906 -5.625 1.765625 -5.1875 C 1.535156 -4.757812 1.421875 -4.25 1.421875 -3.65625 C 1.421875 -3.070312 1.535156 -2.5625 1.765625 -2.125 C 2.003906 -1.695312 2.320312 -1.363281 2.71875 -1.125 C 3.125 -0.882812 3.582031 -0.765625 4.09375 -0.765625 C 4.625 -0.765625 5.078125 -0.878906 5.453125 -1.109375 C 5.835938 -1.347656 6.132812 -1.6875 6.34375 -2.125 L 7.484375 -2.125 C 7.210938 -1.425781 6.78125 -0.882812 6.1875 -0.5 C 5.59375 -0.125 4.894531 0.0625 4.09375 0.0625 C 3.414062 0.0625 2.800781 -0.09375 2.25 -0.40625 C 1.695312 -0.726562 1.257812 -1.171875 0.9375 -1.734375 C 0.613281 -2.304688 0.453125 -2.945312 0.453125 -3.65625 Z M 0.453125 -3.65625 "/></g></g></g><g fill="#000000" fill-opacity="1"><g transform="translate(236.440418, 226.552264)"><g><path d="M 0.453125 -3.65625 C 0.453125 -4.375 0.613281 -5.015625 0.9375 -5.578125 C 1.257812 -6.148438 1.695312 -6.597656 2.25 -6.921875 C 2.800781 -7.242188 3.414062 -7.40625 4.09375 -7.40625 C 4.894531 -7.40625 5.59375 -7.210938 6.1875 -6.828125 C 6.78125 -6.441406 7.210938 -5.894531 7.484375 -5.1875 L 6.34375 -5.1875 C 6.132812 -5.625 5.835938 -5.960938 5.453125 -6.203125 C 5.078125 -6.441406 4.625 -6.5625 4.09375 -6.5625 C 3.582031 -6.5625 3.125 -6.441406 2.71875 -6.203125 C 2.320312 -5.960938 2.003906 -5.625 1.765625 -5.1875 C 1.535156 -4.757812 1.421875 -4.25 1.421875 -3.65625 C 1.421875 -3.070312 1.535156 -2.5625 1.765625 -2.125 C 2.003906 -1.695312 2.320312 -1.363281 2.71875 -1.125 C 3.125 -0.882812 3.582031 -0.765625 4.09375 -0.765625 C 4.625 -0.765625 5.078125 -0.878906 5.453125 -1.109375 C 5.835938 -1.347656 6.132812 -1.6875 6.34375 -2.125 L 7.484375 -2.125 C 7.210938 -1.425781 6.78125 -0.882812 6.1875 -0.5 C 5.59375 -0.125 4.894531 0.0625 4.09375 0.0625 C 3.414062 0.0625 2.800781 -0.09375 2.25 -0.40625 C 1.695312 -0.726562 1.257812 -1.171875 0.9375 -1.734375 C 0.613281 -2.304688 0.453125 -2.945312 0.453125 -3.65625 Z M 0.453125 -3.65625 "/></g></g></g><g fill="#000000" fill-opacity="1"><g transform="translate(245.052589, 226.552264)"><g><path d="M 1.765625 -6.53125 L 1.765625 -4.09375 L 4.421875 -4.09375 L 4.421875 -3.296875 L 1.765625 -3.296875 L 1.765625 -0.78125 L 4.734375 -0.78125 L 4.734375 0 L 0.8125 0 L 0.8125 -7.3125 L 4.734375 -7.3125 L 4.734375 -6.53125 Z M 1.765625 -6.53125 "/></g></g></g><g fill="#000000" fill-opacity="1"><g transform="translate(250.951331, 226.552264)"><g><path d="M 3.125 0.078125 C 2.644531 0.078125 2.210938 -0.00390625 1.828125 -0.171875 C 1.453125 -0.347656 1.15625 -0.585938 0.9375 -0.890625 C 0.71875 -1.203125 0.601562 -1.554688 0.59375 -1.953125 L 1.609375 -1.953125 C 1.648438 -1.609375 1.789062 -1.316406 2.03125 -1.078125 C 2.28125 -0.847656 2.644531 -0.734375 3.125 -0.734375 C 3.582031 -0.734375 3.941406 -0.847656 4.203125 -1.078125 C 4.460938 -1.304688 4.59375 -1.597656 4.59375 -1.953125 C 4.59375 -2.234375 4.515625 -2.457031 4.359375 -2.625 C 4.203125 -2.800781 4.007812 -2.9375 3.78125 -3.03125 C 3.550781 -3.125 3.242188 -3.222656 2.859375 -3.328125 C 2.367188 -3.453125 1.976562 -3.578125 1.6875 -3.703125 C 1.40625 -3.828125 1.160156 -4.023438 0.953125 -4.296875 C 0.742188 -4.566406 0.640625 -4.925781 0.640625 -5.375 C 0.640625 -5.769531 0.738281 -6.125 0.9375 -6.4375 C 1.144531 -6.75 1.429688 -6.988281 1.796875 -7.15625 C 2.160156 -7.320312 2.582031 -7.40625 3.0625 -7.40625 C 3.75 -7.40625 4.3125 -7.234375 4.75 -6.890625 C 5.1875 -6.546875 5.429688 -6.09375 5.484375 -5.53125 L 4.4375 -5.53125 C 4.394531 -5.800781 4.242188 -6.039062 3.984375 -6.25 C 3.734375 -6.46875 3.394531 -6.578125 2.96875 -6.578125 C 2.570312 -6.578125 2.242188 -6.472656 1.984375 -6.265625 C 1.734375 -6.066406 1.609375 -5.78125 1.609375 -5.40625 C 1.609375 -5.144531 1.679688 -4.929688 1.828125 -4.765625 C 1.984375 -4.597656 2.171875 -4.46875 2.390625 -4.375 C 2.609375 -4.289062 2.921875 -4.191406 3.328125 -4.078125 C 3.804688 -3.941406 4.191406 -3.804688 4.484375 -3.671875 C 4.773438 -3.546875 5.023438 -3.347656 5.234375 -3.078125 C 5.453125 -2.816406 5.5625 -2.453125 5.5625 -1.984375 C 5.5625 -1.628906 5.460938 -1.296875 5.265625 -0.984375 C 5.078125 -0.671875 4.796875 -0.414062 4.421875 -0.21875 C 4.054688 -0.0195312 3.625 0.078125 3.125 0.078125 Z M 3.125 0.078125 "/></g></g></g><g fill="#000000" fill-opacity="1"><g transform="translate(257.625342, 226.552264)"><g><path d="M 3.125 0.078125 C 2.644531 0.078125 2.210938 -0.00390625 1.828125 -0.171875 C 1.453125 -0.347656 1.15625 -0.585938 0.9375 -0.890625 C 0.71875 -1.203125 0.601562 -1.554688 0.59375 -1.953125 L 1.609375 -1.953125 C 1.648438 -1.609375 1.789062 -1.316406 2.03125 -1.078125 C 2.28125 -0.847656 2.644531 -0.734375 3.125 -0.734375 C 3.582031 -0.734375 3.941406 -0.847656 4.203125 -1.078125 C 4.460938 -1.304688 4.59375 -1.597656 4.59375 -1.953125 C 4.59375 -2.234375 4.515625 -2.457031 4.359375 -2.625 C 4.203125 -2.800781 4.007812 -2.9375 3.78125 -3.03125 C 3.550781 -3.125 3.242188 -3.222656 2.859375 -3.328125 C 2.367188 -3.453125 1.976562 -3.578125 1.6875 -3.703125 C 1.40625 -3.828125 1.160156 -4.023438 0.953125 -4.296875 C 0.742188 -4.566406 0.640625 -4.925781 0.640625 -5.375 C 0.640625 -5.769531 0.738281 -6.125 0.9375 -6.4375 C 1.144531 -6.75 1.429688 -6.988281 1.796875 -7.15625 C 2.160156 -7.320312 2.582031 -7.40625 3.0625 -7.40625 C 3.75 -7.40625 4.3125 -7.234375 4.75 -6.890625 C 5.1875 -6.546875 5.429688 -6.09375 5.484375 -5.53125 L 4.4375 -5.53125 C 4.394531 -5.800781 4.242188 -6.039062 3.984375 -6.25 C 3.734375 -6.46875 3.394531 -6.578125 2.96875 -6.578125 C 2.570312 -6.578125 2.242188 -6.472656 1.984375 -6.265625 C 1.734375 -6.066406 1.609375 -5.78125 1.609375 -5.40625 C 1.609375 -5.144531 1.679688 -4.929688 1.828125 -4.765625 C 1.984375 -4.597656 2.171875 -4.46875 2.390625 -4.375 C 2.609375 -4.289062 2.921875 -4.191406 3.328125 -4.078125 C 3.804688 -3.941406 4.191406 -3.804688 4.484375 -3.671875 C 4.773438 -3.546875 5.023438 -3.347656 5.234375 -3.078125 C 5.453125 -2.816406 5.5625 -2.453125 5.5625 -1.984375 C 5.5625 -1.628906 5.460938 -1.296875 5.265625 -0.984375 C 5.078125 -0.671875 4.796875 -0.414062 4.421875 -0.21875 C 4.054688 -0.0195312 3.625 0.078125 3.125 0.078125 Z M 3.125 0.078125 "/></g></g></g><g fill="#000000" fill-opacity="1"><g transform="translate(264.299353, 226.552264)"><g><path d="M 4.125 0.078125 C 3.445312 0.078125 2.828125 -0.078125 2.265625 -0.390625 C 1.703125 -0.710938 1.257812 -1.160156 0.9375 -1.734375 C 0.613281 -2.304688 0.453125 -2.945312 0.453125 -3.65625 C 0.453125 -4.375 0.613281 -5.015625 0.9375 -5.578125 C 1.257812 -6.148438 1.703125 -6.59375 2.265625 -6.90625 C 2.828125 -7.226562 3.445312 -7.390625 4.125 -7.390625 C 4.800781 -7.390625 5.421875 -7.226562 5.984375 -6.90625 C 6.546875 -6.59375 6.988281 -6.148438 7.3125 -5.578125 C 7.632812 -5.015625 7.796875 -4.375 7.796875 -3.65625 C 7.796875 -2.9375 7.632812 -2.289062 7.3125 -1.71875 C 6.988281 -1.15625 6.546875 -0.710938 5.984375 -0.390625 C 5.421875 -0.078125 4.800781 0.078125 4.125 0.078125 Z M 4.125 -0.75 C 4.632812 -0.75 5.09375 -0.867188 5.5 -1.109375 C 5.90625 -1.347656 6.222656 -1.6875 6.453125 -2.125 C 6.691406 -2.5625 6.8125 -3.070312 6.8125 -3.65625 C 6.8125 -4.25 6.691406 -4.757812 6.453125 -5.1875 C 6.222656 -5.625 5.90625 -5.960938 5.5 -6.203125 C 5.09375 -6.441406 4.632812 -6.5625 4.125 -6.5625 C 3.601562 -6.5625 3.140625 -6.441406 2.734375 -6.203125 C 2.328125 -5.960938 2.003906 -5.625 1.765625 -5.1875 C 1.535156 -4.757812 1.421875 -4.25 1.421875 -3.65625 C 1.421875 -3.070312 1.535156 -2.5625 1.765625 -2.125 C 2.003906 -1.6875 2.328125 -1.347656 2.734375 -1.109375 C 3.148438 -0.867188 3.613281 -0.75 4.125 -0.75 Z M 4.125 -0.75 "/></g></g></g><g fill="#000000" fill-opacity="1"><g transform="translate(273.058191, 226.552264)"><g><path d="M 4.65625 0 L 2.921875 -2.984375 L 1.765625 -2.984375 L 1.765625 0 L 0.8125 0 L 0.8125 -7.3125 L 3.171875 -7.3125 C 3.722656 -7.3125 4.1875 -7.210938 4.5625 -7.015625 C 4.945312 -6.828125 5.234375 -6.570312 5.421875 -6.25 C 5.609375 -5.9375 5.703125 -5.570312 5.703125 -5.15625 C 5.703125 -4.65625 5.554688 -4.210938 5.265625 -3.828125 C 4.972656 -3.441406 4.539062 -3.1875 3.96875 -3.0625 L 5.796875 0 Z M 1.765625 -3.75 L 3.171875 -3.75 C 3.679688 -3.75 4.066406 -3.875 4.328125 -4.125 C 4.585938 -4.382812 4.71875 -4.726562 4.71875 -5.15625 C 4.71875 -5.59375 4.585938 -5.925781 4.328125 -6.15625 C 4.078125 -6.394531 3.691406 -6.515625 3.171875 -6.515625 L 1.765625 -6.515625 Z M 1.765625 -3.75 "/></g></g></g><g fill="#000000" fill-opacity="1"><g transform="translate(279.952214, 226.552264)"><g><path d="M 1.765625 -7.3125 L 1.765625 0 L 0.8125 0 L 0.8125 -7.3125 Z M 1.765625 -7.3125 "/></g></g></g><g fill="#000000" fill-opacity="1"><g transform="translate(283.053723, 226.552264)"><g><path d="M 1.765625 -6.53125 L 1.765625 -4.09375 L 4.421875 -4.09375 L 4.421875 -3.296875 L 1.765625 -3.296875 L 1.765625 -0.78125 L 4.734375 -0.78125 L 4.734375 0 L 0.8125 0 L 0.8125 -7.3125 L 4.734375 -7.3125 L 4.734375 -6.53125 Z M 1.765625 -6.53125 "/></g></g></g><g fill="#000000" fill-opacity="1"><g transform="translate(288.952465, 226.552264)"><g><path d="M 3.125 0.078125 C 2.644531 0.078125 2.210938 -0.00390625 1.828125 -0.171875 C 1.453125 -0.347656 1.15625 -0.585938 0.9375 -0.890625 C 0.71875 -1.203125 0.601562 -1.554688 0.59375 -1.953125 L 1.609375 -1.953125 C 1.648438 -1.609375 1.789062 -1.316406 2.03125 -1.078125 C 2.28125 -0.847656 2.644531 -0.734375 3.125 -0.734375 C 3.582031 -0.734375 3.941406 -0.847656 4.203125 -1.078125 C 4.460938 -1.304688 4.59375 -1.597656 4.59375 -1.953125 C 4.59375 -2.234375 4.515625 -2.457031 4.359375 -2.625 C 4.203125 -2.800781 4.007812 -2.9375 3.78125 -3.03125 C 3.550781 -3.125 3.242188 -3.222656 2.859375 -3.328125 C 2.367188 -3.453125 1.976562 -3.578125 1.6875 -3.703125 C 1.40625 -3.828125 1.160156 -4.023438 0.953125 -4.296875 C 0.742188 -4.566406 0.640625 -4.925781 0.640625 -5.375 C 0.640625 -5.769531 0.738281 -6.125 0.9375 -6.4375 C 1.144531 -6.75 1.429688 -6.988281 1.796875 -7.15625 C 2.160156 -7.320312 2.582031 -7.40625 3.0625 -7.40625 C 3.75 -7.40625 4.3125 -7.234375 4.75 -6.890625 C 5.1875 -6.546875 5.429688 -6.09375 5.484375 -5.53125 L 4.4375 -5.53125 C 4.394531 -5.800781 4.242188 -6.039062 3.984375 -6.25 C 3.734375 -6.46875 3.394531 -6.578125 2.96875 -6.578125 C 2.570312 -6.578125 2.242188 -6.472656 1.984375 -6.265625 C 1.734375 -6.066406 1.609375 -5.78125 1.609375 -5.40625 C 1.609375 -5.144531 1.679688 -4.929688 1.828125 -4.765625 C 1.984375 -4.597656 2.171875 -4.46875 2.390625 -4.375 C 2.609375 -4.289062 2.921875 -4.191406 3.328125 -4.078125 C 3.804688 -3.941406 4.191406 -3.804688 4.484375 -3.671875 C 4.773438 -3.546875 5.023438 -3.347656 5.234375 -3.078125 C 5.453125 -2.816406 5.5625 -2.453125 5.5625 -1.984375 C 5.5625 -1.628906 5.460938 -1.296875 5.265625 -0.984375 C 5.078125 -0.671875 4.796875 -0.414062 4.421875 -0.21875 C 4.054688 -0.0195312 3.625 0.078125 3.125 0.078125 Z M 3.125 0.078125 "/></g></g></g><g fill="#f39200" fill-opacity="0.4"><g transform="translate(213.126977, 209.039108)"><g><path d="M 2.546875 -34.953125 L 15.296875 -34.953125 C 18.859375 -34.953125 21.738281 -34.035156 23.9375 -32.203125 C 26.144531 -30.367188 27.25 -27.695312 27.25 -24.1875 C 27.25 -20.6875 26.128906 -17.941406 23.890625 -15.953125 C 21.660156 -13.960938 18.796875 -12.96875 15.296875 -12.96875 L 10.515625 -12.96875 L 10.515625 0 L 2.546875 0 Z M 10.515625 -19.328125 L 12.75 -19.328125 C 14.53125 -19.328125 15.992188 -19.6875 17.140625 -20.40625 C 18.285156 -21.125 18.859375 -22.300781 18.859375 -23.9375 C 18.859375 -25.601562 18.285156 -26.796875 17.140625 -27.515625 C 15.992188 -28.242188 14.53125 -28.609375 12.75 -28.609375 L 10.515625 -28.609375 Z M 10.515625 -19.328125 "/></g></g></g><g fill="#f39200" fill-opacity="0.4"><g transform="translate(239.222549, 209.039108)"><g><path d="M 4.015625 -2.6875 C 1.984375 -4.90625 0.96875 -7.625 0.96875 -10.84375 C 0.96875 -14.0625 1.984375 -16.785156 4.015625 -19.015625 C 6.054688 -21.253906 8.644531 -22.375 11.78125 -22.375 C 14.664062 -22.375 17.039062 -21.46875 18.90625 -19.65625 L 18.90625 -21.734375 L 26.40625 -21.734375 L 26.40625 0 L 18.984375 0 L 18.984375 -2.453125 L 18.90625 -2.453125 C 17.039062 -0.390625 14.664062 0.640625 11.78125 0.640625 C 8.644531 0.640625 6.054688 -0.46875 4.015625 -2.6875 Z M 10.390625 -14.53125 C 9.421875 -13.570312 8.9375 -12.34375 8.9375 -10.84375 C 8.9375 -9.351562 9.398438 -8.132812 10.328125 -7.1875 C 11.265625 -6.238281 12.5 -5.765625 14.03125 -5.765625 C 15.5 -5.765625 16.703125 -6.242188 17.640625 -7.203125 C 18.585938 -8.160156 19.0625 -9.375 19.0625 -10.84375 C 19.0625 -12.34375 18.570312 -13.570312 17.59375 -14.53125 C 16.625 -15.488281 15.4375 -15.96875 14.03125 -15.96875 C 12.582031 -15.96875 11.367188 -15.488281 10.390625 -14.53125 Z M 10.390625 -14.53125 "/></g></g></g><g fill="#f39200" fill-opacity="0.4"><g transform="translate(266.038297, 209.039108)"><g><path d="M 2.546875 0 L 2.546875 -36.4375 L 10.046875 -36.4375 L 10.046875 0 Z M 2.546875 0 "/></g></g></g><g fill="#f39200" fill-opacity="0.4"><g transform="translate(276.501789, 209.039108)"><g><path d="M 11.984375 -22.375 C 13.234375 -22.375 14.460938 -22.234375 15.671875 -21.953125 C 16.890625 -21.671875 17.796875 -21.390625 18.390625 -21.109375 L 19.28125 -20.671875 L 16.828125 -15.765625 C 15.128906 -16.671875 13.515625 -17.125 11.984375 -17.125 C 11.140625 -17.125 10.539062 -17.03125 10.1875 -16.84375 C 9.832031 -16.65625 9.65625 -16.3125 9.65625 -15.8125 C 9.65625 -15.695312 9.671875 -15.582031 9.703125 -15.46875 C 9.734375 -15.351562 9.789062 -15.242188 9.875 -15.140625 C 9.957031 -15.046875 10.035156 -14.960938 10.109375 -14.890625 C 10.179688 -14.816406 10.300781 -14.738281 10.46875 -14.65625 C 10.632812 -14.570312 10.765625 -14.507812 10.859375 -14.46875 C 10.960938 -14.425781 11.128906 -14.363281 11.359375 -14.28125 C 11.585938 -14.195312 11.753906 -14.132812 11.859375 -14.09375 C 11.972656 -14.050781 12.164062 -13.984375 12.4375 -13.890625 C 12.707031 -13.804688 12.910156 -13.753906 13.046875 -13.734375 C 13.921875 -13.472656 14.679688 -13.1875 15.328125 -12.875 C 15.984375 -12.570312 16.671875 -12.148438 17.390625 -11.609375 C 18.109375 -11.078125 18.664062 -10.398438 19.0625 -9.578125 C 19.457031 -8.753906 19.65625 -7.820312 19.65625 -6.78125 C 19.65625 -1.832031 16.222656 0.640625 9.359375 0.640625 C 7.804688 0.640625 6.332031 0.398438 4.9375 -0.078125 C 3.539062 -0.566406 2.53125 -1.050781 1.90625 -1.53125 L 0.96875 -2.28125 L 4.03125 -7.421875 C 4.25 -7.222656 4.539062 -6.988281 4.90625 -6.71875 C 5.28125 -6.445312 5.945312 -6.078125 6.90625 -5.609375 C 7.863281 -5.148438 8.695312 -4.921875 9.40625 -4.921875 C 10.957031 -4.921875 11.734375 -5.441406 11.734375 -6.484375 C 11.734375 -6.960938 11.535156 -7.335938 11.140625 -7.609375 C 10.742188 -7.878906 10.070312 -8.179688 9.125 -8.515625 C 8.1875 -8.859375 7.445312 -9.171875 6.90625 -9.453125 C 5.550781 -10.160156 4.476562 -10.957031 3.6875 -11.84375 C 2.894531 -12.726562 2.5 -13.90625 2.5 -15.375 C 2.5 -17.582031 3.351562 -19.300781 5.0625 -20.53125 C 6.769531 -21.757812 9.078125 -22.375 11.984375 -22.375 Z M 11.984375 -22.375 "/></g></g></g><g fill="#f39200" fill-opacity="1"><g transform="translate(213.126977, 209.039108)"><g><path d="M 2.546875 -34.953125 L 15.296875 -34.953125 C 18.859375 -34.953125 21.738281 -34.035156 23.9375 -32.203125 C 26.144531 -30.367188 27.25 -27.695312 27.25 -24.1875 C 27.25 -20.6875 26.128906 -17.941406 23.890625 -15.953125 C 21.660156 -13.960938 18.796875 -12.96875 15.296875 -12.96875 L 10.515625 -12.96875 L 10.515625 0 L 2.546875 0 Z M 10.515625 -19.328125 L 12.75 -19.328125 C 14.53125 -19.328125 15.992188 -19.6875 17.140625 -20.40625 C 18.285156 -21.125 18.859375 -22.300781 18.859375 -23.9375 C 18.859375 -25.601562 18.285156 -26.796875 17.140625 -27.515625 C 15.992188 -28.242188 14.53125 -28.609375 12.75 -28.609375 L 10.515625 -28.609375 Z M 10.515625 -19.328125 "/></g></g></g><g fill="#f39200" fill-opacity="1"><g transform="translate(239.222549, 209.039108)"><g><path d="M 4.015625 -2.6875 C 1.984375 -4.90625 0.96875 -7.625 0.96875 -10.84375 C 0.96875 -14.0625 1.984375 -16.785156 4.015625 -19.015625 C 6.054688 -21.253906 8.644531 -22.375 11.78125 -22.375 C 14.664062 -22.375 17.039062 -21.46875 18.90625 -19.65625 L 18.90625 -21.734375 L 26.40625 -21.734375 L 26.40625 0 L 18.984375 0 L 18.984375 -2.453125 L 18.90625 -2.453125 C 17.039062 -0.390625 14.664062 0.640625 11.78125 0.640625 C 8.644531 0.640625 6.054688 -0.46875 4.015625 -2.6875 Z M 10.390625 -14.53125 C 9.421875 -13.570312 8.9375 -12.34375 8.9375 -10.84375 C 8.9375 -9.351562 9.398438 -8.132812 10.328125 -7.1875 C 11.265625 -6.238281 12.5 -5.765625 14.03125 -5.765625 C 15.5 -5.765625 16.703125 -6.242188 17.640625 -7.203125 C 18.585938 -8.160156 19.0625 -9.375 19.0625 -10.84375 C 19.0625 -12.34375 18.570312 -13.570312 17.59375 -14.53125 C 16.625 -15.488281 15.4375 -15.96875 14.03125 -15.96875 C 12.582031 -15.96875 11.367188 -15.488281 10.390625 -14.53125 Z M 10.390625 -14.53125 "/></g></g></g><g fill="#f39200" fill-opacity="1"><g transform="translate(266.038297, 209.039108)"><g><path d="M 2.546875 0 L 2.546875 -36.4375 L 10.046875 -36.4375 L 10.046875 0 Z M 2.546875 0 "/></g></g></g><g fill="#f39200" fill-opacity="1"><g transform="translate(276.501789, 209.039108)"><g><path d="M 11.984375 -22.375 C 13.234375 -22.375 14.460938 -22.234375 15.671875 -21.953125 C 16.890625 -21.671875 17.796875 -21.390625 18.390625 -21.109375 L 19.28125 -20.671875 L 16.828125 -15.765625 C 15.128906 -16.671875 13.515625 -17.125 11.984375 -17.125 C 11.140625 -17.125 10.539062 -17.03125 10.1875 -16.84375 C 9.832031 -16.65625 9.65625 -16.3125 9.65625 -15.8125 C 9.65625 -15.695312 9.671875 -15.582031 9.703125 -15.46875 C 9.734375 -15.351562 9.789062 -15.242188 9.875 -15.140625 C 9.957031 -15.046875 10.035156 -14.960938 10.109375 -14.890625 C 10.179688 -14.816406 10.300781 -14.738281 10.46875 -14.65625 C 10.632812 -14.570312 10.765625 -14.507812 10.859375 -14.46875 C 10.960938 -14.425781 11.128906 -14.363281 11.359375 -14.28125 C 11.585938 -14.195312 11.753906 -14.132812 11.859375 -14.09375 C 11.972656 -14.050781 12.164062 -13.984375 12.4375 -13.890625 C 12.707031 -13.804688 12.910156 -13.753906 13.046875 -13.734375 C 13.921875 -13.472656 14.679688 -13.1875 15.328125 -12.875 C 15.984375 -12.570312 16.671875 -12.148438 17.390625 -11.609375 C 18.109375 -11.078125 18.664062 -10.398438 19.0625 -9.578125 C 19.457031 -8.753906 19.65625 -7.820312 19.65625 -6.78125 C 19.65625 -1.832031 16.222656 0.640625 9.359375 0.640625 C 7.804688 0.640625 6.332031 0.398438 4.9375 -0.078125 C 3.539062 -0.566406 2.53125 -1.050781 1.90625 -1.53125 L 0.96875 -2.28125 L 4.03125 -7.421875 C 4.25 -7.222656 4.539062 -6.988281 4.90625 -6.71875 C 5.28125 -6.445312 5.945312 -6.078125 6.90625 -5.609375 C 7.863281 -5.148438 8.695312 -4.921875 9.40625 -4.921875 C 10.957031 -4.921875 11.734375 -5.441406 11.734375 -6.484375 C 11.734375 -6.960938 11.535156 -7.335938 11.140625 -7.609375 C 10.742188 -7.878906 10.070312 -8.179688 9.125 -8.515625 C 8.1875 -8.859375 7.445312 -9.171875 6.90625 -9.453125 C 5.550781 -10.160156 4.476562 -10.957031 3.6875 -11.84375 C 2.894531 -12.726562 2.5 -13.90625 2.5 -15.375 C 2.5 -17.582031 3.351562 -19.300781 5.0625 -20.53125 C 6.769531 -21.757812 9.078125 -22.375 11.984375 -22.375 Z M 11.984375 -22.375 "/></g></g></g></svg>